<svg width="60" height="60" fill="none" xmlns="http://www.w3.org/2000/svg"><g opacity=".9" clip-path="url(#clip0_7_18)" fill="#6F6E6F"><path fill-rule="evenodd" clip-rule="evenodd" d="M30 1.844C14.45 1.844 1.844 14.45 1.844 30 1.844 45.55 14.45 58.156 30 58.156c15.55 0 28.156-12.606 28.156-28.156C58.156 14.45 45.55 1.844 30 1.844zM0 30C0 13.43 13.431 0 30 0c16.569 0 30 13.43 30 30 0 16.569-13.431 30-30 30C13.431 60 0 46.569 0 30z"/><path d="M12.22 30.002c0-9.82 7.96-17.78 17.781-17.78 9.82 0 17.78 7.96 17.78 17.78S39.82 47.782 30 47.782s-17.78-7.96-17.78-17.78zm5.918-11.862a16.722 16.722 0 00-4.914 11.862c0 4.634 1.877 8.825 4.914 11.863A16.724 16.724 0 0030 46.778a16.72 16.72 0 0011.862-4.913 16.722 16.722 0 004.914-11.863c0-4.634-1.877-8.825-4.914-11.862A16.722 16.722 0 0030 13.226a16.722 16.722 0 00-11.863 4.914z"/><path d="M12.228 30.001H30.01v-17.78h-.002c-9.82.001-17.78 7.96-17.78 17.78z"/><path d="M47.777 29.992H29.995v17.791h.002c9.82 0 17.78-7.971 17.78-17.79zm2.826-16.432l-3.962 2.621 1.875-3.647c-.487-.576-1.225-1.181-1.225-1.181l-3.618 1.816 2.655-3.892c-.441-.37-.95-.678-1.44-1.049l-3.715 5.795s.703.414 1.564 1.209l3.845-1.99-2.014 3.785c.453.478.856 1.058 1.276 1.575l5.852-3.62s-.358-.562-1.093-1.422zm-20.19-3.951l1.782-3.94.162 4.994c.718.032 1.777.303 1.777.303l-.32-7.075a28.638 28.638 0 00-2.417-.249l-1.718 4.274L28 3.676s-1.108.109-2.452.304l-.322 7.129s1.061-.307 1.78-.339l.15-5.071 1.788 3.91h1.467zm-15.09 2.316v-.007a1.785 1.785 0 00-.524-1.79c-.723-.66-1.8-.683-2.95.465 0 0-2.12 2.125-3.556 4.207l5.157 4.702 3.886-4.357c.846-.934.879-2.256.105-2.962-.578-.527-1.416-.602-2.119-.258zm-4.975 2.527c1.827-2.262 2.558-2.881 2.558-2.881.48-.414.833-.45 1.121-.189.288.262.251.771-.08 1.137l-2.582 2.86-1.017-.926zm5.805-.19l-2.711 3.01-1.02-.928 2.712-3.01c.332-.367.83-.456 1.11-.2.282.257.241.762-.09 1.128z"/></g><defs><clipPath id="clip0_7_18"><path fill="#fff" d="M0 0h60v60H0z"/></clipPath></defs></svg>